<svg width="0" height="0" class="hidden">
	<symbol xmlns="http://www.w3.org/2000/svg" viewBox="0 0 20 20" id="instagram">
		<g clip-path="url(#clip0_0_18)">
			<path d="M10.0003 1.66602C12.2645 1.66602 12.547 1.67435 13.4353 1.71602C14.3228 1.75768 14.927 1.89685 15.4587 2.10352C16.0087 2.31518 16.472 2.60185 16.9353 3.06435C17.3591 3.48093 17.687 3.98484 17.8962 4.54102C18.102 5.07185 18.242 5.67685 18.2837 6.56435C18.3228 7.45268 18.3337 7.73518 18.3337 9.99935C18.3337 12.2635 18.3253 12.546 18.2837 13.4343C18.242 14.3218 18.102 14.926 17.8962 15.4577C17.6876 16.0142 17.3596 16.5182 16.9353 16.9343C16.5186 17.3579 16.0147 17.6858 15.4587 17.8952C14.9278 18.101 14.3228 18.241 13.4353 18.2827C12.547 18.3218 12.2645 18.3327 10.0003 18.3327C7.73616 18.3327 7.45366 18.3243 6.56533 18.2827C5.67782 18.241 5.07366 18.101 4.54199 17.8952C3.9856 17.6864 3.4816 17.3585 3.06533 16.9343C2.6415 16.5178 2.3136 16.0139 2.10449 15.4577C1.89783 14.9268 1.75866 14.3218 1.71699 13.4343C1.67783 12.546 1.66699 12.2635 1.66699 9.99935C1.66699 7.73518 1.67533 7.45268 1.71699 6.56435C1.75866 5.67602 1.89783 5.07268 2.10449 4.54102C2.31302 3.9845 2.641 3.48045 3.06533 3.06435C3.48172 2.64037 3.98568 2.31246 4.54199 2.10352C5.07366 1.89685 5.67699 1.75768 6.56533 1.71602C7.45366 1.67685 7.73616 1.66602 10.0003 1.66602ZM10.0003 5.83268C8.89526 5.83268 7.83545 6.27167 7.05405 7.05307C6.27265 7.83447 5.83366 8.89428 5.83366 9.99935C5.83366 11.1044 6.27265 12.1642 7.05405 12.9456C7.83545 13.727 8.89526 14.166 10.0003 14.166C11.1054 14.166 12.1652 13.727 12.9466 12.9456C13.728 12.1642 14.167 11.1044 14.167 9.99935C14.167 8.89428 13.728 7.83447 12.9466 7.05307C12.1652 6.27167 11.1054 5.83268 10.0003 5.83268ZM15.417 5.62435C15.417 5.34808 15.3072 5.08313 15.1119 4.88778C14.9165 4.69243 14.6516 4.58268 14.3753 4.58268C14.0991 4.58268 13.8341 4.69243 13.6388 4.88778C13.4434 5.08313 13.3337 5.34808 13.3337 5.62435C13.3337 5.90062 13.4434 6.16557 13.6388 6.36092C13.8341 6.55627 14.0991 6.66602 14.3753 6.66602C14.6516 6.66602 14.9165 6.55627 15.1119 6.36092C15.3072 6.16557 15.417 5.90062 15.417 5.62435ZM10.0003 7.49935C10.6634 7.49935 11.2993 7.76274 11.7681 8.23158C12.2369 8.70042 12.5003 9.33631 12.5003 9.99935C12.5003 10.6624 12.2369 11.2983 11.7681 11.7671C11.2993 12.236 10.6634 12.4993 10.0003 12.4993C9.33728 12.4993 8.7014 12.236 8.23256 11.7671C7.76372 11.2983 7.50033 10.6624 7.50033 9.99935C7.50033 9.33631 7.76372 8.70042 8.23256 8.23158C8.7014 7.76274 9.33728 7.49935 10.0003 7.49935Z" fill="currentColor"></path>
		</g>
		<defs>
			<clipPath id="clip0_0_18">
				<rect width="20" height="20" fill="currentColor"></rect>
			</clipPath>
		</defs>
	</symbol>
	<symbol xmlns="http://www.w3.org/2000/svg" viewBox="0 0 20 20" id="telegram">
		<path d="M8.02686 12.386L7.72359 16.574C8.15749 16.574 8.34541 16.391 8.57076 16.1712L10.605 14.2625L14.8203 17.2932C15.5934 17.7162 16.138 17.4935 16.3466 16.595L19.1134 3.86605L19.1142 3.8653C19.3594 2.7433 18.7009 2.30456 17.9477 2.5798L1.68414 8.69302C0.574179 9.11602 0.590985 9.72352 1.49545 9.99877L5.6534 11.2685L15.3115 5.33529C15.766 5.03979 16.1793 5.20329 15.8393 5.49879L8.02686 12.386Z" fill="currentColor"/>
	</symbol>
</svg>